<svg width="334" height="97" viewBox="0 0 334 97" fill="none" xmlns="http://www.w3.org/2000/svg">
<rect width="97" height="97" rx="24" fill="#DA1A32"/>
<path d="M30.7167 64.6666H34.7583V68.7083H26.675V28.2916H22.6333V72.75H34.7583V76.7916H18.5917V24.25H26.675V20.2083H38.8C40.6524 20.2083 42.4312 20.4925 44.1363 21.0609C45.8413 21.6292 47.4306 22.4818 48.9042 23.6185C50.3566 22.4818 51.9354 21.6292 53.6405 21.0609C55.3456 20.4925 57.1349 20.2083 59.0083 20.2083H71.1333V24.25H79.2167V50.1103L75.175 48.2789V28.2916H71.1333V46.4476L67.0917 44.5846V24.25H59.0083C57.5138 24.25 56.0823 24.5026 54.7141 25.0078C53.3458 25.513 52.0828 26.2603 50.925 27.2497V46.4476L46.8833 48.2789V27.2497C45.7466 26.2813 44.4941 25.5446 43.1258 25.0394C41.7576 24.5342 40.3156 24.271 38.8 24.25H30.7167V64.6666ZM75.175 72.7184L61.0292 79.8229L46.8833 72.7184C46.8833 71.9606 46.8939 71.1607 46.9149 70.3187C46.936 69.4767 47.0202 68.6241 47.1675 67.761C47.3149 66.898 47.5254 66.0875 47.799 65.3297C48.0727 64.5719 48.4516 63.8667 48.9357 63.2142L42.8417 60.4355V78.8125H38.8V58.6041L61.0292 48.5L83.2583 58.6041L73.1226 63.2142L73.3752 63.5615C73.8172 64.2141 74.1541 64.9193 74.3856 65.6771C74.6172 66.4349 74.7961 67.2032 74.9224 67.9821C75.0487 68.7609 75.1224 69.5608 75.1434 70.3818C75.1645 71.2028 75.175 71.9816 75.175 72.7184ZM61.0292 52.9206L48.5568 58.6041L61.0292 64.2877L73.5015 58.6041L61.0292 52.9206ZM61.0292 75.3076L71.1333 70.2239C71.1123 69.6766 71.0702 69.1819 71.007 68.7399C70.9439 68.2978 70.8281 67.8663 70.6597 67.4453C70.4913 67.0243 70.3229 66.6138 70.1545 66.2138C69.9861 65.8139 69.744 65.3718 69.4283 64.8877L61.0292 68.7083L52.6301 64.8877C52.3143 65.3929 52.0617 65.8455 51.8723 66.2454C51.6828 66.6454 51.5144 67.0453 51.3671 67.4453C51.2197 67.8452 51.125 68.2663 51.0829 68.7083C51.0408 69.1504 50.9987 69.6661 50.9566 70.2555L61.0292 75.3076Z" fill="white"/>
<path d="M145.22 15.72C162.308 15.72 172.868 24.936 172.868 39.624C172.868 54.888 161.732 64.392 143.972 64.392H135.14V81H118.916V15.72H145.22ZM144.932 50.184C152.036 50.184 156.74 46.056 156.74 39.624C156.74 33.768 152.036 29.928 144.932 29.928H135.14V50.184H144.932ZM179.666 15.72H195.89V81H179.666V15.72ZM233.72 15.72C250.808 15.72 261.368 24.936 261.368 39.624C261.368 54.888 250.232 64.392 232.472 64.392H223.64V81H207.416V15.72H233.72ZM233.432 50.184C240.536 50.184 245.24 46.056 245.24 39.624C245.24 33.768 240.536 29.928 233.432 29.928H223.64V50.184H233.432ZM294.374 15.72C314.918 15.72 329.606 29.064 329.606 48.168C329.606 67.56 314.918 81 294.374 81H268.166V15.72H294.374ZM294.374 66.408C305.03 66.408 313.19 58.536 313.19 48.168C313.19 38.088 305.03 30.312 294.374 30.312H284.39V66.408H294.374Z" fill="#1E1E1E"/>
</svg>
