<svg width="418" height="106" viewBox="0 0 418 106" fill="none" xmlns="http://www.w3.org/2000/svg">
<path d="M129.688 2.24C135.384 2.24 138.904 5.312 138.904 10.208C138.904 15.296 135.192 18.464 129.272 18.464H126.328V24H120.92V2.24H129.688ZM129.592 13.728C131.96 13.728 133.528 12.352 133.528 10.208C133.528 8.256 131.96 6.976 129.592 6.976H126.328V13.728H129.592ZM141.26 1.28H146.476V24H141.26V1.28ZM161.149 8.48H166.333V24H161.149V23.168C159.997 23.936 158.621 24.416 156.893 24.416C152.701 24.416 149.181 20.832 149.181 16.224C149.181 11.584 152.701 8.064 156.893 8.064C158.621 8.064 159.997 8.512 161.149 9.28V8.48ZM157.949 20C159.069 20 160.157 19.712 161.149 18.624V13.824C160.157 12.736 159.069 12.448 157.949 12.448C155.837 12.448 154.269 14.08 154.269 16.224C154.269 18.368 155.837 20 157.949 20ZM181.726 19.008L182.302 23.648C180.702 24.32 179.038 24.416 178.142 24.416C173.918 24.416 171.358 21.664 171.358 17.472V12.928H168.318V8.48H171.358V3.2H176.542V8.48H181.822V12.928H176.542V17.312C176.542 18.912 177.47 19.648 178.974 19.648C179.966 19.648 180.798 19.36 181.726 19.008ZM191.807 7.584V8.48H197.279V12.928H191.807V24H186.623V12.928H182.815V8.48H186.623V7.584C186.623 3.072 189.663 0.575998 193.631 0.575998C194.879 0.575998 195.967 0.768 197.567 1.184L196.863 5.504C196.095 5.248 195.167 5.024 194.495 5.024C192.831 5.024 191.807 6.016 191.807 7.584ZM206.788 8.064C211.78 8.064 215.3 11.488 215.3 16.256C215.3 21.056 211.78 24.416 206.788 24.416C201.796 24.416 198.243 21.056 198.243 16.256C198.243 11.488 201.796 8.064 206.788 8.064ZM206.788 20.096C208.932 20.096 210.436 18.528 210.436 16.256C210.436 14.016 208.932 12.416 206.788 12.416C204.612 12.416 203.108 14.016 203.108 16.256C203.108 18.528 204.612 20.096 206.788 20.096ZM228.414 8.224V13.152C225.886 13.248 224.286 13.92 223.07 15.104V24H217.854V8.48H223.07V10.144C224.446 8.96 226.11 8.224 228.414 8.224ZM250.083 8.064C254.115 8.064 256.739 10.528 256.739 15.008V24H251.555V15.648C251.555 13.536 250.467 12.768 248.995 12.768C248.067 12.768 247.235 13.056 246.435 13.952C246.467 14.24 246.467 14.528 246.467 14.848V24H241.283V15.488C241.283 13.376 240.195 12.768 238.883 12.768C237.859 12.768 236.963 13.152 236.195 14.08V24H230.979V8.48H236.195V9.44C237.283 8.576 238.467 8.064 240.195 8.064C242.179 8.064 243.811 8.704 244.931 9.984C246.467 8.672 248.067 8.064 250.083 8.064ZM268.451 2.24H273.859V24H268.451V2.24ZM287.013 8.064C290.917 8.064 293.605 10.72 293.605 15.136V24H288.421V15.968C288.421 13.76 287.301 12.768 285.573 12.768C284.645 12.768 283.653 13.248 282.757 14.24V24H277.541V8.48H282.757V9.504C284.005 8.576 285.349 8.064 287.013 8.064ZM304.276 7.584V8.48H309.748V12.928H304.276V24H299.092V12.928H295.284V8.48H299.092V7.584C299.092 3.072 302.132 0.575998 306.1 0.575998C307.348 0.575998 308.436 0.768 310.036 1.184L309.332 5.504C308.564 5.248 307.636 5.024 306.964 5.024C305.3 5.024 304.276 6.016 304.276 7.584ZM319.256 8.064C324.248 8.064 327.768 11.488 327.768 16.256C327.768 21.056 324.248 24.416 319.256 24.416C314.264 24.416 310.712 21.056 310.712 16.256C310.712 11.488 314.264 8.064 319.256 8.064ZM319.256 20.096C321.4 20.096 322.904 18.528 322.904 16.256C322.904 14.016 321.4 12.416 319.256 12.416C317.08 12.416 315.576 14.016 315.576 16.256C315.576 18.528 317.08 20.096 319.256 20.096ZM340.883 8.224V13.152C338.355 13.248 336.755 13.92 335.539 15.104V24H330.323V8.48H335.539V10.144C336.915 8.96 338.579 8.224 340.883 8.224ZM362.552 8.064C366.584 8.064 369.208 10.528 369.208 15.008V24H364.024V15.648C364.024 13.536 362.936 12.768 361.464 12.768C360.536 12.768 359.704 13.056 358.904 13.952C358.936 14.24 358.936 14.528 358.936 14.848V24H353.752V15.488C353.752 13.376 352.664 12.768 351.352 12.768C350.328 12.768 349.432 13.152 348.664 14.08V24H343.448V8.48H348.664V9.44C349.752 8.576 350.936 8.064 352.664 8.064C354.648 8.064 356.28 8.704 357.4 9.984C358.936 8.672 360.536 8.064 362.552 8.064ZM383.805 8.48H388.989V24H383.805V23.168C382.653 23.936 381.277 24.416 379.549 24.416C375.357 24.416 371.837 20.832 371.837 16.224C371.837 11.584 375.357 8.064 379.549 8.064C381.277 8.064 382.653 8.512 383.805 9.28V8.48ZM380.605 20C381.725 20 382.813 19.712 383.805 18.624V13.824C382.813 12.736 381.725 12.448 380.605 12.448C378.493 12.448 376.925 14.08 376.925 16.224C376.925 18.368 378.493 20 380.605 20ZM396.062 18.688C396.286 20.032 397.502 20.608 399.134 20.608C400.51 20.608 401.374 20.224 401.374 19.552C401.374 19.008 400.766 18.624 399.742 18.464L396.606 17.92C393.95 17.472 392.062 15.968 392.062 13.248C392.062 9.984 394.846 8.064 398.974 8.064C402.654 8.064 405.982 9.312 406.206 13.408H401.63C401.534 12.256 400.414 11.744 398.974 11.744C397.63 11.744 397.022 12.224 397.022 12.8C397.022 13.344 397.406 13.824 398.654 14.048L401.534 14.528C404.414 15.072 406.366 16.48 406.366 19.232C406.366 22.816 403.166 24.416 399.102 24.416C395.102 24.416 391.806 22.784 391.454 18.656L396.062 18.688ZM412.238 6.048C410.542 6.048 409.198 4.8 409.198 3.136C409.198 1.44 410.542 0.191999 412.238 0.191999C413.902 0.191999 415.278 1.44 415.278 3.136C415.278 4.8 413.902 6.048 412.238 6.048ZM409.678 8.48H414.862V24H409.678V8.48ZM132.024 38.28H137.208V61H132.024V60.232C130.872 60.968 129.496 61.416 127.768 61.416C123.576 61.416 120.056 57.896 120.056 53.256C120.056 48.648 123.576 45.128 127.768 45.128C129.496 45.128 130.872 45.576 132.024 46.344V38.28ZM128.824 57.064C129.944 57.064 131.032 56.776 132.024 55.688V50.888C131.032 49.8 129.944 49.512 128.824 49.512C126.712 49.512 125.144 51.144 125.144 53.256C125.144 55.432 126.712 57.064 128.824 57.064ZM151.868 45.48H157.052V61H151.868V60.168C150.716 60.936 149.34 61.416 147.612 61.416C143.42 61.416 139.9 57.832 139.9 53.224C139.9 48.584 143.42 45.064 147.612 45.064C149.34 45.064 150.716 45.512 151.868 46.28V45.48ZM148.668 57C149.788 57 150.876 56.712 151.868 55.624V50.824C150.876 49.736 149.788 49.448 148.668 49.448C146.556 49.448 144.988 51.08 144.988 53.224C144.988 55.368 146.556 57 148.668 57ZM170.045 45.064C173.949 45.064 176.637 47.72 176.637 52.136V61H171.453V52.968C171.453 50.76 170.333 49.768 168.605 49.768C167.677 49.768 166.685 50.248 165.789 51.24V61H160.573V45.48H165.789V46.504C167.036 45.576 168.381 45.064 170.045 45.064ZM197.126 39.24C202.822 39.24 206.342 42.312 206.342 47.208C206.342 52.296 202.63 55.464 196.71 55.464H193.766V61H188.358V39.24H197.126ZM197.03 50.728C199.398 50.728 200.966 49.352 200.966 47.208C200.966 45.256 199.398 43.976 197.03 43.976H193.766V50.728H197.03ZM215.84 45.064C221.312 45.064 224.608 48.968 223.84 54.472H212.608C212.96 56.072 214.016 57.32 216.128 57.32C217.28 57.32 217.952 57.064 218.432 56.488H223.68C222.752 59.528 219.872 61.416 216.224 61.416C211.136 61.416 207.743 57.96 207.743 53.224C207.743 48.52 211.04 45.064 215.84 45.064ZM215.968 48.904C214.144 48.904 213.088 49.928 212.672 51.496H219.136C218.848 49.704 217.728 48.904 215.968 48.904ZM236.013 45.064C239.917 45.064 242.605 47.72 242.605 52.136V61H237.421V52.968C237.421 50.76 236.301 49.768 234.573 49.768C233.645 49.768 232.653 50.248 231.757 51.24V61H226.541V45.48H231.757V46.504C233.005 45.576 234.349 45.064 236.013 45.064ZM256.868 45.48H262.052V61.096C262.052 65.96 258.596 68.776 253.732 68.776C249.028 68.776 245.604 66.088 245.348 62.056H250.468C250.724 63.496 251.812 64.392 253.732 64.392C255.492 64.392 256.868 63.304 256.868 61.192V59.336C255.716 60.04 254.34 60.456 252.612 60.456C248.42 60.456 244.9 57.16 244.9 52.968C244.9 48.232 248.42 45.064 252.612 45.064C254.34 45.064 255.716 45.512 256.868 46.248V45.48ZM253.668 56.328C254.788 56.328 255.876 55.976 256.868 54.856V50.76C255.876 49.64 254.788 49.32 253.668 49.32C251.556 49.32 249.988 50.728 249.988 52.968C249.988 54.664 251.556 56.328 253.668 56.328ZM272.871 45.064C278.343 45.064 281.639 48.968 280.871 54.472H269.639C269.991 56.072 271.047 57.32 273.159 57.32C274.311 57.32 274.983 57.064 275.463 56.488H280.711C279.783 59.528 276.903 61.416 273.255 61.416C268.167 61.416 264.775 57.96 264.775 53.224C264.775 48.52 268.071 45.064 272.871 45.064ZM272.999 48.904C271.175 48.904 270.119 49.928 269.703 51.496H276.167C275.879 49.704 274.759 48.904 272.999 48.904ZM295.695 56.008L296.271 60.648C294.671 61.32 293.007 61.416 292.111 61.416C287.887 61.416 285.327 58.664 285.327 54.472V49.928H282.287V45.48H285.327V40.2H290.51V45.48H295.791V49.928H290.51V54.312C290.51 55.912 291.439 56.648 292.943 56.648C293.935 56.648 294.767 56.36 295.695 56.008ZM309.587 45.48H314.771V61H309.587V60.168C308.435 60.936 307.059 61.416 305.331 61.416C301.139 61.416 297.618 57.832 297.618 53.224C297.618 48.584 301.139 45.064 305.331 45.064C307.059 45.064 308.435 45.512 309.587 46.28V45.48ZM306.387 57C307.507 57 308.595 56.712 309.587 55.624V50.824C308.595 49.736 307.507 49.448 306.387 49.448C304.275 49.448 302.707 51.08 302.707 53.224C302.707 55.368 304.275 57 306.387 57ZM327.763 45.064C331.667 45.064 334.355 47.72 334.355 52.136V61H329.171V52.968C329.171 50.76 328.051 49.768 326.323 49.768C325.395 49.768 324.403 50.248 323.507 51.24V61H318.291V38.28H323.507V46.504C324.755 45.576 326.099 45.064 327.763 45.064ZM348.386 45.48H353.569V61H348.386V59.912C347.138 60.872 345.794 61.416 344.13 61.416C340.194 61.416 337.506 58.696 337.506 54.28V45.48H342.69V53.48C342.69 55.688 343.842 56.744 345.538 56.744C346.498 56.744 347.49 56.2 348.386 55.208V45.48ZM368.305 45.48H373.489V61H368.305V60.168C367.153 60.936 365.777 61.416 364.049 61.416C359.857 61.416 356.337 57.832 356.337 53.224C356.337 48.584 359.857 45.064 364.049 45.064C365.777 45.064 367.153 45.512 368.305 46.28V45.48ZM365.105 57C366.225 57 367.313 56.712 368.305 55.624V50.824C367.313 49.736 366.225 49.448 365.105 49.448C362.993 49.448 361.425 51.08 361.425 53.224C361.425 55.368 362.993 57 365.105 57ZM386.482 45.064C390.386 45.064 393.074 47.72 393.074 52.136V61H387.89V52.968C387.89 50.76 386.77 49.768 385.042 49.768C384.114 49.768 383.122 50.248 382.226 51.24V61H377.01V45.48H382.226V46.504C383.474 45.576 384.818 45.064 386.482 45.064ZM129.656 76.24C136.504 76.24 141.4 80.688 141.4 87.056C141.4 93.52 136.504 98 129.656 98H120.92V76.24H129.656ZM129.656 93.136C133.208 93.136 135.928 90.512 135.928 87.056C135.928 83.696 133.208 81.104 129.656 81.104H126.328V93.136H129.656ZM147.613 80.048C145.917 80.048 144.573 78.8 144.573 77.136C144.573 75.44 145.917 74.192 147.613 74.192C149.277 74.192 150.653 75.44 150.653 77.136C150.653 78.8 149.277 80.048 147.613 80.048ZM145.053 82.48H150.237V98H145.053V82.48ZM165.462 82.48H170.646V98.096C170.646 102.96 167.19 105.776 162.326 105.776C157.622 105.776 154.198 103.088 153.942 99.056H159.062C159.318 100.496 160.406 101.392 162.326 101.392C164.086 101.392 165.462 100.304 165.462 98.192V96.336C164.31 97.04 162.934 97.456 161.206 97.456C157.014 97.456 153.493 94.16 153.493 89.968C153.493 85.232 157.014 82.064 161.206 82.064C162.934 82.064 164.31 82.512 165.462 83.248V82.48ZM162.262 93.328C163.382 93.328 164.47 92.976 165.462 91.856V87.76C164.47 86.64 163.382 86.32 162.262 86.32C160.15 86.32 158.582 87.728 158.582 89.968C158.582 91.664 160.15 93.328 162.262 93.328ZM177.206 80.048C175.51 80.048 174.166 78.8 174.166 77.136C174.166 75.44 175.51 74.192 177.206 74.192C178.87 74.192 180.246 75.44 180.246 77.136C180.246 78.8 178.87 80.048 177.206 80.048ZM174.646 82.48H179.83V98H174.646V82.48ZM195.663 93.008L196.239 97.648C194.639 98.32 192.975 98.416 192.079 98.416C187.855 98.416 185.295 95.664 185.295 91.472V86.928H182.255V82.48H185.295V77.2H190.479V82.48H195.759V86.928H190.479V91.312C190.479 92.912 191.407 93.648 192.911 93.648C193.903 93.648 194.735 93.36 195.663 93.008ZM209.555 82.48H214.739V98H209.555V97.168C208.403 97.936 207.027 98.416 205.299 98.416C201.107 98.416 197.587 94.832 197.587 90.224C197.587 85.584 201.107 82.064 205.299 82.064C207.027 82.064 208.403 82.512 209.555 83.28V82.48ZM206.355 94C207.475 94 208.563 93.712 209.555 92.624V87.824C208.563 86.736 207.475 86.448 206.355 86.448C204.243 86.448 202.675 88.08 202.675 90.224C202.675 92.368 204.243 94 206.355 94ZM218.26 75.28H223.476V98H218.26V75.28Z" fill="white"/>
<rect y="1" width="97" height="97" rx="24" fill="white"/>
<path d="M30.7167 65.6667H34.7583V69.7084H26.675V29.2917H22.6333V73.75H34.7583V77.7917H18.5917V25.25H26.675V21.2084H38.8C40.6524 21.2084 42.4312 21.4926 44.1363 22.0609C45.8413 22.6293 47.4306 23.4818 48.9042 24.6185C50.3566 23.4818 51.9354 22.6293 53.6405 22.0609C55.3456 21.4926 57.1349 21.2084 59.0083 21.2084H71.1333V25.25H79.2167V51.1104L75.175 49.279V29.2917H71.1333V47.4476L67.0917 45.5847V25.25H59.0083C57.5138 25.25 56.0823 25.5026 54.7141 26.0079C53.3458 26.5131 52.0828 27.2603 50.925 28.2497V47.4476L46.8833 49.279V28.2497C45.7466 27.2814 44.4941 26.5446 43.1259 26.0394C41.7576 25.5342 40.3156 25.2711 38.8 25.25H30.7167V65.6667ZM75.175 73.7185L61.0292 80.823L46.8833 73.7185C46.8833 72.9607 46.8939 72.1607 46.9149 71.3187C46.936 70.4767 47.0202 69.6242 47.1675 68.7611C47.3149 67.898 47.5254 67.0876 47.799 66.3298C48.0727 65.572 48.4516 64.8668 48.9357 64.2142L42.8417 61.4356V79.8125H38.8V59.6042L61.0292 49.5L83.2583 59.6042L73.1226 64.2142L73.3752 64.5616C73.8173 65.2141 74.1541 65.9193 74.3856 66.6771C74.6172 67.4349 74.7961 68.2033 74.9224 68.9821C75.0487 69.761 75.1224 70.5609 75.1434 71.3819C75.1645 72.2028 75.175 72.9817 75.175 73.7185ZM61.0292 53.9206L48.5568 59.6042L61.0292 65.2878L73.5015 59.6042L61.0292 53.9206ZM61.0292 76.3077L71.1333 71.224C71.1123 70.6767 71.0702 70.182 71.007 69.7399C70.9439 69.2979 70.8281 68.8664 70.6597 68.4454C70.4913 68.0243 70.3229 67.6139 70.1545 67.2139C69.9861 66.8139 69.744 66.3719 69.4283 65.8877L61.0292 69.7084L52.6301 65.8877C52.3143 66.3929 52.0617 66.8455 51.8723 67.2455C51.6828 67.6454 51.5144 68.0454 51.3671 68.4454C51.2197 68.8453 51.125 69.2663 51.0829 69.7084C51.0408 70.1504 50.9987 70.6662 50.9566 71.2556L61.0292 76.3077Z" fill="#DA1A32"/>
</svg>
