<svg width="280" height="36" viewBox="0 0 280 36" fill="none" xmlns="http://www.w3.org/2000/svg">
<path d="M19.696 9.368C24.616 9.368 28.336 13.088 28.336 17.84C28.336 22.592 24.616 26.312 19.696 26.312C14.776 26.312 11.056 22.592 11.056 17.84C11.056 13.088 14.776 9.368 19.696 9.368ZM19.696 22.52C22.336 22.52 24.232 20.408 24.232 17.84C24.232 15.272 22.336 13.16 19.696 13.16C17.056 13.16 15.16 15.272 15.16 17.84C15.16 20.408 17.056 22.52 19.696 22.52ZM37.3988 9.68C41.6708 9.68 44.3108 11.984 44.3108 15.656C44.3108 19.472 41.5268 21.848 37.0868 21.848H34.8788V26H30.8228V9.68H37.3988ZM37.3268 18.296C39.1028 18.296 40.2788 17.264 40.2788 15.656C40.2788 14.192 39.1028 13.232 37.3268 13.232H34.8788V18.296H37.3268ZM58.3463 13.208H50.0663V16.184H57.3143V19.64H50.0663V22.472H58.3463V26H46.0103V9.68H58.3463V13.208ZM75.6348 26H70.9068L67.8108 21.272H67.7868H64.7148V26H60.6588V9.68H67.7868C71.8428 9.68 74.5548 11.888 74.5548 15.416C74.5548 17.552 73.5228 19.28 71.7948 20.288L75.6348 26ZM64.7148 13.256V17.624H67.7148C69.2748 17.624 70.4988 16.76 70.4988 15.416C70.4988 14.096 69.2748 13.256 67.7148 13.256H64.7148ZM89.7509 26L88.6469 23.192H81.7349L80.6549 26H76.3349L83.2709 9.68H87.1589L94.0709 26H89.7509ZM83.0549 19.808H87.3269L85.1909 14.312L83.0549 19.808ZM106.703 9.68V13.304H101.495V26H97.4631V13.304H92.2551V9.68H106.703ZM108.542 9.68H112.598V26H108.542V9.68ZM123.735 9.368C128.655 9.368 132.375 13.088 132.375 17.84C132.375 22.592 128.655 26.312 123.735 26.312C118.815 26.312 115.095 22.592 115.095 17.84C115.095 13.088 118.815 9.368 123.735 9.368ZM123.735 22.52C126.375 22.52 128.271 20.408 128.271 17.84C128.271 15.272 126.375 13.16 123.735 13.16C121.095 13.16 119.199 15.272 119.199 17.84C119.199 20.408 121.095 22.52 123.735 22.52ZM145.83 9.68H149.862V26H146.742L138.918 17.048V26H134.862V9.68H137.958L145.83 18.872V9.68ZM159.393 9.368C162.033 9.368 165.969 10.352 166.377 14.744H162.297C162.081 13.52 161.337 12.68 159.609 12.68C158.169 12.68 157.233 13.232 157.233 14.288C157.233 15.224 157.905 15.632 159.201 15.896L161.481 16.376C164.481 17 166.401 18.224 166.401 21.032C166.401 24.296 163.713 26.312 159.633 26.312C155.961 26.312 152.649 24.56 152.265 20.528H156.345C156.609 21.968 157.833 22.88 159.753 22.88C161.193 22.88 162.057 22.328 162.057 21.416C162.057 20.84 161.745 20.24 160.329 19.976L157.641 19.4C154.425 18.704 152.913 17.24 152.913 14.648C152.913 11.384 155.553 9.368 159.393 9.368ZM181.704 9.68C185.976 9.68 188.616 11.984 188.616 15.656C188.616 19.472 185.832 21.848 181.392 21.848H179.184V26H175.128V9.68H181.704ZM181.632 18.296C183.408 18.296 184.584 17.264 184.584 15.656C184.584 14.192 183.408 13.232 181.632 13.232H179.184V18.296H181.632ZM198.759 9.368C203.679 9.368 207.399 13.088 207.399 17.84C207.399 22.592 203.679 26.312 198.759 26.312C193.839 26.312 190.119 22.592 190.119 17.84C190.119 13.088 193.839 9.368 198.759 9.368ZM198.759 22.52C201.398 22.52 203.295 20.408 203.295 17.84C203.295 15.272 201.398 13.16 198.759 13.16C196.118 13.16 194.223 15.272 194.223 17.84C194.223 20.408 196.118 22.52 198.759 22.52ZM224.861 26H220.133L217.037 21.272H217.013H213.941V26H209.885V9.68H217.013C221.069 9.68 223.781 11.888 223.781 15.416C223.781 17.552 222.749 19.28 221.021 20.288L224.861 26ZM213.941 13.256V17.624H216.941C218.501 17.624 219.725 16.76 219.725 15.416C219.725 14.096 218.501 13.256 216.941 13.256H213.941ZM239.312 9.68V13.304H234.105V26H230.073V13.304H224.865V9.68H239.312ZM250.931 26L249.827 23.192H242.915L241.835 26H237.515L244.451 9.68H248.339L255.251 26H250.931ZM244.235 19.808H248.507L246.371 14.312L244.235 19.808ZM261.027 22.376H269.091V26H256.971V9.68H261.027V22.376Z" fill="#DA1A32"/>
</svg>
