<svg width="97" height="97" viewBox="0 0 97 97" fill="none" xmlns="http://www.w3.org/2000/svg">
<rect width="97" height="97" rx="24" fill="white"/>
<path d="M30.7167 64.6667H34.7583V68.7083H26.675V28.2917H22.6333V72.75H34.7583V76.7917H18.5917V24.25H26.675V20.2083H38.8C40.6524 20.2083 42.4312 20.4925 44.1363 21.0609C45.8413 21.6292 47.4306 22.4818 48.9042 23.6185C50.3566 22.4818 51.9354 21.6292 53.6405 21.0609C55.3456 20.4925 57.1349 20.2083 59.0083 20.2083H71.1333V24.25H79.2167V50.1104L75.175 48.279V28.2917H71.1333V46.4476L67.0917 44.5846V24.25H59.0083C57.5138 24.25 56.0823 24.5026 54.7141 25.0078C53.3458 25.513 52.0828 26.2603 50.925 27.2497V46.4476L46.8833 48.279V27.2497C45.7466 26.2814 44.4941 25.5446 43.1258 25.0394C41.7576 24.5342 40.3156 24.2711 38.8 24.25H30.7167V64.6667ZM75.175 72.7184L61.0292 79.8229L46.8833 72.7184C46.8833 71.9606 46.8939 71.1607 46.9149 70.3187C46.936 69.4767 47.0202 68.6241 47.1675 67.7611C47.3149 66.898 47.5254 66.0876 47.799 65.3298C48.0727 64.5719 48.4516 63.8668 48.9357 63.2142L42.8417 60.4356V78.8125H38.8V58.6042L61.0292 48.5L83.2583 58.6042L73.1226 63.2142L73.3752 63.5615C73.8173 64.2141 74.1541 64.9193 74.3856 65.6771C74.6172 66.4349 74.7961 67.2032 74.9224 67.9821C75.0487 68.761 75.1224 69.5609 75.1434 70.3818C75.1645 71.2028 75.175 71.9817 75.175 72.7184ZM61.0292 52.9206L48.5568 58.6042L61.0292 64.2878L73.5015 58.6042L61.0292 52.9206ZM61.0292 75.3076L71.1333 70.224C71.1123 69.6767 71.0702 69.182 71.007 68.7399C70.9439 68.2979 70.8281 67.8663 70.6597 67.4453C70.4913 67.0243 70.3229 66.6138 70.1545 66.2139C69.9861 65.8139 69.744 65.3719 69.4283 64.8877L61.0292 68.7083L52.6301 64.8877C52.3143 65.3929 52.0617 65.8455 51.8723 66.2455C51.6828 66.6454 51.5144 67.0454 51.3671 67.4453C51.2197 67.8453 51.125 68.2663 51.0829 68.7083C51.0408 69.1504 50.9987 69.6661 50.9566 70.2555L61.0292 75.3076Z" fill="#DA1A32"/>
</svg>
